<svg id="call-icon" xmlns="http://www.w3.org/2000/svg" width="32" height="32" viewBox="0 0 32 32">
  <circle id="Ellipse_1" data-name="Ellipse 1" cx="16" cy="16" r="16" transform="translate(0 0)" fill="#f26333"/>
  <path id="call-svgrepo-com" d="M8.345,14.2C2.971,8.821,3.228,4.756,5.686,2.913l.545-.406a1.288,1.288,0,0,1,1.824.307L9.427,4.788A1.3,1.3,0,0,1,9.21,6.516L7.89,7.658a1.033,1.033,0,0,0-.343,1.13,10.285,10.285,0,0,0,2.517,3.689,10.31,10.31,0,0,0,3.689,2.518,1.035,1.035,0,0,0,1.131-.344l1.142-1.319a1.3,1.3,0,0,1,1.729-.217l1.977,1.373a1.286,1.286,0,0,1,.308,1.821l-.408.55C17.788,19.315,13.721,19.571,8.345,14.2Z" transform="translate(3.892 5.255)" fill="#fff"/>
</svg>
