<svg id="instagram-icon" xmlns="http://www.w3.org/2000/svg" width="32" height="32" viewBox="0 0 32 32">
  <circle id="Ellipse_5" data-name="Ellipse 5" cx="16" cy="16" r="16" transform="translate(0 0)" fill="#f26333"/>
  <g id="instagram-svgrepo-com" transform="translate(8.128 7.779)">
    <path id="Path_32" data-name="Path 32" d="M16.432,5H9.851A4.855,4.855,0,0,0,5,9.851v6.581a4.855,4.855,0,0,0,4.851,4.852h6.581a4.855,4.855,0,0,0,4.851-4.852V9.851A4.853,4.853,0,0,0,16.432,5Zm3.214,11.432a3.214,3.214,0,0,1-3.213,3.214H9.851a3.213,3.213,0,0,1-3.213-3.214V9.851A3.212,3.212,0,0,1,9.852,6.638h6.58A3.214,3.214,0,0,1,19.645,9.85Z" transform="translate(-5 -5)" fill="#fff"/>
    <path id="Path_33" data-name="Path 33" d="M14.522,9.969a4.21,4.21,0,1,0,4.21,4.21A4.214,4.214,0,0,0,14.522,9.969Zm0,6.782a2.572,2.572,0,1,1,2.572-2.572,2.572,2.572,0,0,1-2.572,2.572Zm4.219-7.76A1.009,1.009,0,1,1,17.731,10,.966.966,0,0,1,18.741,8.991Z" transform="translate(-6.38 -6.037)" fill="#fff"/>
  </g>
</svg>
