<svg xmlns="http://www.w3.org/2000/svg" width="32" height="32" viewBox="0 0 32 32">
  <g id="linkedin-icon" transform="translate(-0.124)">
    <circle id="Ellipse_5" data-name="Ellipse 5" cx="16" cy="16" r="16" transform="translate(0.124 0)" fill="#f26333"/>
    <g id="linkedin-svgrepo-com" transform="translate(6.624 7.5)">
      <rect id="Rectangle_33" data-name="Rectangle 33" width="19" height="17" fill="none"/>
      <g id="Group_20" data-name="Group 20" transform="translate(2.689 1.418)">
        <path id="Path_34" data-name="Path 34" d="M2.469,15.925h2.69V6.264H2.469ZM3.814,2a1.567,1.567,0,1,0,0,3.133A1.567,1.567,0,1,0,3.814,2ZM9.732,7.744V6.264H7.042v9.66h2.69V10.964c0-2.785,3.676-2.959,3.676,0v4.961H16.1V10.007A3.48,3.48,0,0,0,9.732,7.744Z" transform="translate(-2.2 -2)" fill="#fff"/>
      </g>
    </g>
  </g>
</svg>
