<svg xmlns="http://www.w3.org/2000/svg" width="32" height="31.086" viewBox="0 0 32 31.086">
  <g id="mail-icon" transform="translate(0.073)">
    <ellipse id="Ellipse_2" data-name="Ellipse 2" cx="16" cy="15.543" rx="16" ry="15.543" transform="translate(-0.073 0)" fill="#f26333"/>
    <g id="email-9-svgrepo-com" transform="translate(7.291 8.497)">
      <path id="Path_3" data-name="Path 3" d="M17.973,58.094a2.364,2.364,0,0,0-.49-1.037,2,2,0,0,0-.16-.176,2.374,2.374,0,0,0-1.673-.693H2.366a2.35,2.35,0,0,0-1.673.694,2.075,2.075,0,0,0-.161.178A2.336,2.336,0,0,0,.046,58.1,2.286,2.286,0,0,0,0,58.554v9.33a2.379,2.379,0,0,0,.693,1.673c.053.053.106.1.163.15a2.372,2.372,0,0,0,1.51.544H15.651a2.354,2.354,0,0,0,1.512-.548,2.048,2.048,0,0,0,.161-.146,2.353,2.353,0,0,0,.484-.7l.015-.037a2.333,2.333,0,0,0,.193-.937v-9.33A2.424,2.424,0,0,0,17.973,58.094ZM1.225,57.7a1.112,1.112,0,0,1,.131-.154,1.42,1.42,0,0,1,1.01-.419H15.651a1.41,1.41,0,0,1,1.011.42,1.426,1.426,0,0,1,.129.15l.1.137L9.8,64.011a1.205,1.205,0,0,1-1.585,0L1.133,57.833ZM.941,67.967a.565.565,0,0,1,0-.082V58.748l5.5,4.8L.992,68.3ZM16.36,69.126a1.42,1.42,0,0,1-.709.188H2.366a1.419,1.419,0,0,1-.709-.188L1.435,69l5.628-4.9.617.536a2.024,2.024,0,0,0,2.66,0l.617-.537L16.582,69Zm.72-1.241a.591.591,0,0,1,0,.081l-.049.333L11.578,63.55l5.5-4.8Z" transform="translate(0 -56.188)" fill="#fff"/>
    </g>
  </g>
</svg>
