<svg xmlns="http://www.w3.org/2000/svg" width="32" height="32" viewBox="0 0 32 32">
  <g id="twitter-icon" transform="translate(0.438)">
    <circle id="Ellipse_5" data-name="Ellipse 5" cx="16" cy="16" r="16" transform="translate(-0.437 0)" fill="#f26333"/>
    <path id="twitter-svgrepo-com" d="M10.251,20.628A9.672,9.672,0,0,1,5,19.086a6.867,6.867,0,0,0,5.07-1.417,3.424,3.424,0,0,1-3.2-2.381,3.346,3.346,0,0,0,.644.062,3.563,3.563,0,0,0,.905-.118,3.429,3.429,0,0,1-2.749-3.358V11.83a3.4,3.4,0,0,0,1.55.428A3.427,3.427,0,0,1,6.162,7.685a9.722,9.722,0,0,0,7.06,3.578,3.428,3.428,0,0,1,5.837-3.123,6.911,6.911,0,0,0,2.175-.83,3.447,3.447,0,0,1-1.5,1.9A6.89,6.89,0,0,0,21.7,8.667a7.044,7.044,0,0,1-1.709,1.773c.006.146.011.294.011.442a9.681,9.681,0,0,1-9.747,9.745" transform="translate(2.65 2.076)" fill="#fff"/>
  </g>
</svg>
