<svg xmlns="http://www.w3.org/2000/svg" width="64" height="64" viewBox="0 0 64 64"><g transform="translate(15708 -4091)"><rect width="64" height="64" transform="translate(-15708 4091)" fill="none"/><path d="M7.652,49.594a12.9,12.9,0,0,0,.615,2.635,7.206,7.206,0,0,0,1.375,2.414c1.939,2.181,4.458,2.176,7.217,2.176h1.31c1.135-1.853,3.8-3.15,6.9-3.15,4.134,0,7.5,2.306,7.5,5.156s-3.354,5.156-7.5,5.156c-3.034,0-5.648-1.246-6.823-3.037H16.859c-3.539,0-6.773,0-9.772-3.365a11.448,11.448,0,0,1-2.189-3.8A18.01,18.01,0,0,1,4,49.594,4.413,4.413,0,0,1,0,44.96V28.246a4.4,4.4,0,0,1,4.089-4.635h.29A25.058,25.058,0,0,1,16.309,4.3,28.3,28.3,0,0,1,28.675.1a25.905,25.905,0,0,1,12.97,2.079c7.222,3.235,13.275,10.108,15.619,21.428h.065a4.4,4.4,0,0,1,4.089,4.635V44.96a4.4,4.4,0,0,1-4.089,4.635H53.241V24.019C51.147,14.722,46.129,9.056,40.176,6.4A22.307,22.307,0,0,0,28.99,4.626a24.547,24.547,0,0,0-10.741,3.62,20.624,20.624,0,0,0-9.961,16.7,2.536,2.536,0,0,1-.11.652V49.594Z" transform="translate(-15706.709 4091.021)" fill="#eb3e23"/></g></svg>