<svg xmlns="http://www.w3.org/2000/svg" width="64" height="64" viewBox="0 0 64 64"><g transform="translate(15636 -4091)"><rect width="64" height="64" transform="translate(-15636 4091)" fill="none"/><g transform="translate(-15636 4095.251)"><path d="M34.365,30.137H29.635a.273.273,0,0,0-.193.083.292.292,0,0,0-.078.2V40.988a.307.307,0,0,0,.078.2.26.26,0,0,0,.193.083h4.724a.273.273,0,0,0,.193-.083.293.293,0,0,0,.078-.2V30.424a.307.307,0,0,0-.078-.2.224.224,0,0,0-.188-.083ZM3.635,7.711h16.4V2.727A2.8,2.8,0,0,1,20.792.8,2.519,2.519,0,0,1,22.609,0H41.391a2.5,2.5,0,0,1,1.818.8,2.819,2.819,0,0,1,.755,1.926V7.711h16.4a3.487,3.487,0,0,1,2.562,1.137A3.953,3.953,0,0,1,64,11.563v9.306a80.141,80.141,0,0,1-12.719,7.606,68.817,68.817,0,0,1-13.615,4.819v-3.72a3.226,3.226,0,0,0-.854-2.2,2.852,2.852,0,0,0-2.073-.905H29.255a2.87,2.87,0,0,0-2.073.905,3.205,3.205,0,0,0-.854,2.2v3.637a68.683,68.683,0,0,1-13.271-4.736A80.57,80.57,0,0,1,0,20.621V11.563A3.912,3.912,0,0,1,1.073,8.848,3.513,3.513,0,0,1,3.635,7.711ZM64,26.389V51.646a3.912,3.912,0,0,1-1.073,2.716A3.522,3.522,0,0,1,60.365,55.5H3.635a3.487,3.487,0,0,1-2.563-1.137A3.953,3.953,0,0,1,0,51.646V26.157a83.374,83.374,0,0,0,11.078,6.375,72.963,72.963,0,0,0,15.255,5.3v4a3.226,3.226,0,0,0,.854,2.2,2.861,2.861,0,0,0,2.073.905h5.484a2.87,2.87,0,0,0,2.073-.905,3.205,3.205,0,0,0,.854-2.2V37.643l.057.254a73.145,73.145,0,0,0,15.536-5.37A82.885,82.885,0,0,0,64,26.389ZM39.432,3.715H24.578a.3.3,0,0,0-.229.1.376.376,0,0,0-.1.243V7.606H39.745V4.062a.349.349,0,0,0-.328-.348Z" transform="translate(0)" fill="#eb3e23"/></g></g></svg>