<svg xmlns="http://www.w3.org/2000/svg" width="64" height="64" viewBox="0 0 64 64"><g transform="translate(15564 -4091)"><rect width="64" height="64" transform="translate(-15564 4091)" fill="none"/><path d="M15.2,24.7c.12-1.038-2.777-4.969-3.308-6.885-1.136-1.91-1.537-4.969-.3-6.967.49-.8.276-1.5.276-2.606,0-10.987,18.171-10.992,18.171,0,0,1.391-.3,1.717.412,2.816,1.188,1.822.578,5.068-.427,6.763-.646,1.993-3.683,5.753-3.459,6.885.193,5.637-11.383,5.449-11.352,0Zm6.627,9.756h.636a1.074,1.074,0,0,0,1.042-1.1v-1.8a1.074,1.074,0,0,0-1.042-1.1H18.682a1.074,1.074,0,0,0-1.042,1.1v1.794a1.074,1.074,0,0,0,1.042,1.1h.646l-1.24,6.691h4.934ZM0,41.143c.49-6.747-.755-6.454,4.569-8.569a40.209,40.209,0,0,0,7.466-4.008l4.574,12.577ZM29.31,27.992a29.58,29.58,0,0,0,6.9,3.655c4.975,1.756,4.949,2,4.949,9.5H24.59Zm18.354,7.774h.521a.87.87,0,0,0,.844-.889V33.435a.876.876,0,0,0-.844-.894H45.132a.82.82,0,0,0-.6.26.922.922,0,0,0-.249.634v1.441a.87.87,0,0,0,.839.889h.521l-1,5.377h3.965l-.959-5.377Zm-5.324-7.84c.094-.834-2.235-4.008-2.662-5.521a5.842,5.842,0,0,1-.24-5.6c.4-.646.224-1.2.224-2.1,0-8.834,14.587-8.834,14.587,0,0,1.1-.24,1.38.328,2.264.953,1.469.464,4.074-.344,5.438-.521,1.6-2.959,4.621-2.792,5.521.156,4.533-9.148,4.384-9.122,0Zm11.321,2.65a29.864,29.864,0,0,0,6.377,2.932c4,1.413,3.985,1.607,3.959,7.635H49.883Z" transform="translate(-15564 4102.428)" fill="#eb3e23" fill-rule="evenodd"/></g></svg>