<svg xmlns="http://www.w3.org/2000/svg" width="64" height="64" viewBox="0 0 64 64"><g transform="translate(15492 -4091)"><rect width="64" height="64" transform="translate(-15492 4091)" fill="none"/><path d="M36.024,42.733a.967.967,0,1,1-.911.966.94.94,0,0,1,.911-.966ZM11.511,12.6H1.791v1.655A4.554,4.554,0,0,0,6.18,18.925a6.668,6.668,0,0,0,4.045-1.374,4.809,4.809,0,0,0,1.286-3.311V12.586ZM2.239,10.947h9.549l1.562-9.341H6.06l-3.822,9.33ZM38.752,1.595l.661,9.341H50.092l-1.8-9.341Zm-1.427,9.341-.656-9.341H27.3l-.651,9.341Zm-12.766,0L25.2,1.595H15.442L13.88,10.936ZM50.367,1.595l1.8,9.341h9.523L57.568,1.595ZM52.45,12.63v1.655A4.808,4.808,0,0,0,53.736,17.6a6.668,6.668,0,0,0,4.045,1.374A4.554,4.554,0,0,0,62.171,14.3V12.646ZM39.569,12.6v1.655a4.791,4.791,0,0,0,1.291,3.311,6.628,6.628,0,0,0,8.08,0,4.791,4.791,0,0,0,1.291-3.311V12.6Zm-12.922,0v1.655a4.791,4.791,0,0,0,1.291,3.311,6.628,6.628,0,0,0,8.08,0,4.791,4.791,0,0,0,1.291-3.311V12.6Zm-12.922,0v1.655a4.791,4.791,0,0,0,1.291,3.311,6.628,6.628,0,0,0,8.08,0,4.791,4.791,0,0,0,1.291-3.311V12.6Zm41.5,7.609a12.115,12.115,0,0,1-2.759-1.3,6.614,6.614,0,0,1-1.1-1.589,6.614,6.614,0,0,1-1.1,1.589c-1.114,1.181-3.645,1.909-5.357,1.909s-4.233-.728-5.331-1.909a6.613,6.613,0,0,1-1.1-1.589,6.614,6.614,0,0,1-1.1,1.589c-1.114,1.181-3.645,1.909-5.357,1.909s-4.243-.728-5.357-1.909a6.6,6.6,0,0,1-1.135-1.589,6.614,6.614,0,0,1-1.1,1.589c-1.114,1.181-3.645,1.909-5.357,1.909s-4.243-.728-5.357-1.909a6.614,6.614,0,0,1-1.1-1.589,6.614,6.614,0,0,1-1.1,1.589c-.734.778-2.666,1.357-3.686,1.655q-.333.044-.687.066V52.891a.637.637,0,0,0,.172.436.582.582,0,0,0,.422.188H31.135V31.24a5.24,5.24,0,0,1,5.071-5.374h8.382a5.24,5.24,0,0,1,5.066,5.374V53.52h6.6a.573.573,0,0,0,.417-.188h0a.643.643,0,0,0,.167-.436V20.5a12.16,12.16,0,0,1-1.619-.292ZM33.493,53.52H47.3V31.24a2.813,2.813,0,0,0-2.718-2.88H36.211a2.813,2.813,0,0,0-2.718,2.88ZM15.619,29.971H24a1.218,1.218,0,0,1,1.182,1.247v13.2A1.219,1.219,0,0,1,24,45.674H15.619a1.219,1.219,0,0,1-1.182-1.252v-13.2a1.218,1.218,0,0,1,1.182-1.247Zm7.206,2.5H16.791v10.7h6.034ZM4.358,20.415a5.379,5.379,0,0,1-2.551-1.473A6.7,6.7,0,0,1,0,14.313v-2.56H0a.838.838,0,0,1,.089-.37L4.92.381A.687.687,0,0,1,5.529,0H58.063a.7.7,0,0,1,.63.419L63.9,11.361a.777.777,0,0,1,.1.348h0a.333.333,0,0,1,0,.072v2.527a6.7,6.7,0,0,1-1.807,4.6,5.124,5.124,0,0,1-2.556,1.457,1.517,1.517,0,0,1,.031.309V52.891a3.691,3.691,0,0,1-1,2.527h0a3.286,3.286,0,0,1-2.395,1.054H7.721a3.286,3.286,0,0,1-2.39-1.054h0a3.674,3.674,0,0,1-.994-2.527V20.68a1.8,1.8,0,0,1,0-.292Z" transform="translate(-15492 4094.764)" fill="#eb3e23" fill-rule="evenodd"/></g></svg>